<svg width="21" height="21" viewBox="0 0 21 21" fill="none" xmlns="http://www.w3.org/2000/svg">
<g id="edit-2">
<path id="Vector" d="M14.7667 2.99999C14.9856 2.78112 15.2454 2.6075 15.5314 2.48905C15.8174 2.3706 16.1239 2.30963 16.4334 2.30963C16.7429 2.30963 17.0494 2.3706 17.3354 2.48905C17.6214 2.6075 17.8812 2.78112 18.1001 2.99999C18.3189 3.21886 18.4925 3.47869 18.611 3.76466C18.7294 4.05063 18.7904 4.35713 18.7904 4.66665C18.7904 4.97618 18.7294 5.28268 18.611 5.56865C18.4925 5.85461 18.3189 6.11445 18.1001 6.33332L6.85006 17.5833L2.26672 18.8333L3.51672 14.25L14.7667 2.99999Z" stroke="#050607" stroke-width="2" stroke-linecap="round" stroke-linejoin="round"/>
</g>
</svg>
