<svg width="21" height="21" viewBox="0 0 21 21" fill="none" xmlns="http://www.w3.org/2000/svg">
<g id="trash-2">
<path id="Vector" d="M3.1001 5.5H4.76676H18.1001" stroke="#050607" stroke-width="2" stroke-linecap="round" stroke-linejoin="round"/>
<path id="Vector_2" d="M16.4334 5.49999V17.1667C16.4334 17.6087 16.2578 18.0326 15.9452 18.3452C15.6327 18.6577 15.2088 18.8333 14.7667 18.8333H6.43339C5.99136 18.8333 5.56744 18.6577 5.25488 18.3452C4.94232 18.0326 4.76672 17.6087 4.76672 17.1667V5.49999M7.26672 5.49999V3.83332C7.26672 3.3913 7.44232 2.96737 7.75488 2.65481C8.06744 2.34225 8.49136 2.16666 8.93339 2.16666H12.2667C12.7088 2.16666 13.1327 2.34225 13.4452 2.65481C13.7578 2.96737 13.9334 3.3913 13.9334 3.83332V5.49999" stroke="#050607" stroke-width="2" stroke-linecap="round" stroke-linejoin="round"/>
<path id="Vector_3" d="M8.93347 9.66666V14.6667" stroke="#050607" stroke-width="2" stroke-linecap="round" stroke-linejoin="round"/>
<path id="Vector_4" d="M12.2667 9.66666V14.6667" stroke="#050607" stroke-width="2" stroke-linecap="round" stroke-linejoin="round"/>
</g>
</svg>
